<?xml version="1.0" encoding="utf-8"?>
<!-- created with dmn-js / http://bpmn.io -->
<!DOCTYPE svg PUBLIC "-//W3C//DTD SVG 1.1//EN" "http://www.w3.org/Graphics/SVG/1.1/DTD/svg11.dtd">
<svg xmlns="http://www.w3.org/2000/svg" xmlns:xlink="http://www.w3.org/1999/xlink" width="598" height="218" viewBox="150 118 598 218" version="1.1"><defs><marker id="association-start" viewBox="0 0 20 20" refX="1" refY="10" markerWidth="10" markerHeight="10" orient="auto"><path d="M 11 5 L 1 10 L 11 15" style="stroke-width: 1.5px; stroke-linecap: round; stroke-dasharray: 10000, 1; fill: none; stroke: black;"></path></marker><marker id="association-end" viewBox="0 0 20 20" refX="12" refY="10" markerWidth="10" markerHeight="10" orient="auto"><path d="M 1 5 L 11 10 L 1 15" style="stroke-width: 1.5px; stroke-linecap: round; stroke-dasharray: 10000, 1; fill: none; stroke: black;"></path></marker><marker id="information-requirement-end" viewBox="0 0 20 20" refX="11" refY="10" markerWidth="20" markerHeight="20" orient="auto"><path d="M 1 5 L 11 10 L 1 15 Z" style="stroke-width: 1px; stroke-linecap: round; stroke-dasharray: 10000, 1;"></path></marker><marker id="knowledge-requirement-end" viewBox="0 0 20 20" refX="11" refY="10" markerWidth="16" markerHeight="16" orient="auto"><path d="M 1 3 L 11 10 L 1 17" style="stroke-width: 2px; stroke-linecap: round; stroke-dasharray: 10000, 1; fill: none; stroke: black;"></path></marker><marker id="authority-requirement-end" viewBox="0 0 20 20" refX="3" refY="3" markerWidth="18" markerHeight="18" orient="auto"><circle cx="3" cy="3" r="3" style="stroke-width: 1px; stroke-linecap: round; stroke-dasharray: 10000, 1;"></circle></marker></defs><g class="djs-group"><g class="djs-element djs-shape" data-element-id="Decision_1e0udy5" style="display: block;" transform="matrix(1 0 0 1 358 124)"><g class="djs-visual"><rect x="0" y="0" width="180" height="80" rx="0" ry="0" style="stroke: black; stroke-width: 2px; fill: white;"/><text class="djs-label" style="font-family: Arial, sans-serif; font-size: 12px;"><tspan x="41.65625" y="43.5">Terminmöglichkeit</tspan></text></g><rect class="djs-hit djs-hit-all" x="0" y="0" width="180" height="80" style="fill: none; stroke-opacity: 0; stroke: white; stroke-width: 15px;"/><rect x="-6" y="-6" width="192" height="92" class="djs-outline" style="fill: none;"/></g></g><g class="djs-group"><g class="djs-element djs-shape" data-element-id="InputData_11zj1zg" style="display: block;" transform="matrix(1 0 0 1 156 282)"><g class="djs-visual"><rect x="0" y="0" width="125" height="45" rx="22" ry="22" style="stroke: black; stroke-width: 2px; fill: white;"/><text class="djs-label" style="font-family: Arial, sans-serif; font-size: 12px;"><tspan x="32.59375" y="26">Wochentag</tspan></text></g><rect class="djs-hit djs-hit-all" x="0" y="0" width="125" height="45" style="fill: none; stroke-opacity: 0; stroke: white; stroke-width: 15px;"/><rect x="-6" y="-6" width="137" height="57" class="djs-outline" style="fill: none;"/></g></g><g class="djs-group"><g class="djs-element djs-shape" data-element-id="InputData_1iuxz1y" style="display: block;" transform="matrix(1 0 0 1 617 283)"><g class="djs-visual"><rect x="0" y="0" width="125" height="45" rx="22" ry="22" style="stroke: black; stroke-width: 2px; fill: white;"/><text class="djs-label" style="font-family: Arial, sans-serif; font-size: 12px;"><tspan x="16.6484375" y="26">Dauer in Minuten</tspan></text></g><rect class="djs-hit djs-hit-all" x="0" y="0" width="125" height="45" style="fill: none; stroke-opacity: 0; stroke: white; stroke-width: 15px;"/><rect x="-6" y="-6" width="137" height="57" class="djs-outline" style="fill: none;"/></g></g><g class="djs-group"><g class="djs-element djs-connection" data-element-id="connection_18" style="display: block;"><g class="djs-visual"><polyline points="255,282 379,204 " style="fill: none; stroke: black; stroke-width: 1px; stroke-linecap: round; stroke-linejoin: round; marker-end: url('#information-requirement-end');"/></g><polyline points="255,282 379,204 " class="djs-hit djs-hit-stroke" style="fill: none; stroke-opacity: 0; stroke: white; stroke-width: 15px;"/><rect x="249" y="198" width="136" height="90" class="djs-outline" style="fill: none;"/></g></g><g class="djs-group"><g class="djs-element djs-connection" data-element-id="connection_20" style="display: block;"><g class="djs-visual"><polyline points="642,283 513,204 " style="fill: none; stroke: black; stroke-width: 1px; stroke-linecap: round; stroke-linejoin: round; marker-end: url('#information-requirement-end');"/></g><polyline points="642,283 513,204 " class="djs-hit djs-hit-stroke" style="fill: none; stroke-opacity: 0; stroke: white; stroke-width: 15px;"/><rect x="507" y="198" width="141" height="91" class="djs-outline" style="fill: none;"/></g></g><g class="djs-group"><g class="djs-element djs-connection" data-element-id="connection_21" style="display: block;"><g class="djs-visual"><polyline points="449,285 448,204 " style="fill: none; stroke: black; stroke-width: 1px; stroke-linecap: round; stroke-linejoin: round; marker-end: url('#information-requirement-end');"/></g><polyline points="449,285 448,204 " class="djs-hit djs-hit-stroke" style="fill: none; stroke-opacity: 0; stroke: white; stroke-width: 15px;"/><rect x="442" y="198" width="13" height="93" class="djs-outline" style="fill: none;"/></g></g><g class="djs-group"><g class="djs-element djs-shape" data-element-id="InputData_0lrwecx" style="display: block;" transform="matrix(1 0 0 1 388 285)"><g class="djs-visual"><rect x="0" y="0" width="125" height="45" rx="22" ry="22" style="stroke: black; stroke-width: 2px; fill: white;"/><text class="djs-label" style="font-family: Arial, sans-serif; font-size: 12px;"><tspan x="43.65625" y="26">Beginn</tspan></text></g><rect class="djs-hit djs-hit-all" x="0" y="0" width="125" height="45" style="fill: none; stroke-opacity: 0; stroke: white; stroke-width: 15px;"/><rect x="-6" y="-6" width="137" height="57" class="djs-outline" style="fill: none;"/></g></g><g class="djs-drag-group" style="pointer-events: none;" transform="matrix(1 0 0 1 -3 -35)"/><g class="djs-drag-group" style="pointer-events: none;" transform="matrix(1 0 0 1 -4 33)"/><g class="djs-drag-group" style="pointer-events: none;" transform="matrix(1 0 0 1 30 -2)"/><g class="djs-drag-group" style="pointer-events: none;" transform="matrix(1 0 0 1 -18 1)"/><g class="djs-drag-group" style="pointer-events: none;" transform="matrix(1 0 0 1 5 0)"/></svg>